# xmcd
#
# Track frame offsets:
#	150
#	7960
#	27640
#	46060
#	67102
#	87927
#	111045
#	130877
#	146017
#	164835
#	186490
#	204845
#	219367
#	227525
#	245702
#	265062
#
# Disc length: 3603 seconds
# Revision: 0
# Processed by: cddbd v1.5.2PL0 Copyright (c) Steve Scherf et al.
# Submitted via: dBpowerAMP V12.0
#
DISCID=e60e1110
DTITLE=Ledisi - Lost and Found
DYEAR=2007
DGENRE=Soul
TTITLE0=Been Here (Intro)
TTITLE1=Joy
TTITLE2=You and Me
TTITLE3=Best Friend
TTITLE4=Alright
TTITLE5=Think Of You
TTITLE6=Today
TTITLE7=Get To Know You
TTITLE8=Upside Down
TTITLE9=In The Morning
TTITLE10=I Tried
TTITLE11=Lost and Found (Find Me)
TTITLE12=We Are One
TTITLE13=The One
TTITLE14=Someday
TTITLE15=Been Here (Outro)
EXTD=
EXTT0=
EXTT1=
EXTT2=
EXTT3=
EXTT4=
EXTT5=
EXTT6=
EXTT7=
EXTT8=
EXTT9=
EXTT10=
EXTT11=
EXTT12=
EXTT13=
EXTT14=
EXTT15=
PLAYORDER=
